<svg width="95" height="123" viewBox="0 0 95 123" fill="none" xmlns="http://www.w3.org/2000/svg">
<path fill-rule="evenodd" clip-rule="evenodd" d="M48.9338 68.2571C48.8961 70.4977 46.0865 70.2737 46.0865 68.2011L46.1053 36.9067C44.9362 36.4959 44.1065 35.861 43.5408 35.1141C42.202 33.359 42.3529 31.0063 43.4088 29.4378C44.6156 27.7573 46.2562 27.2345 47.6515 27.2719C49.3109 27.3092 50.8194 28.2241 51.7057 29.5125C52.5731 30.8196 52.7051 32.444 52.3091 33.5644C51.8754 34.8341 50.9891 36.2345 48.9715 36.9253L48.9338 68.2571ZM47.5384 29.8673C48.9149 29.8673 50.0463 30.9689 50.0463 32.3507C50.0463 33.7137 48.9149 34.8341 47.5384 34.8341C46.143 34.8341 45.0305 33.7137 45.0305 32.3507C45.0305 30.9689 46.143 29.8673 47.5384 29.8673Z" fill="white"/>
<path d="M86.3057 105.433C86.3623 105.228 86.5132 105.19 86.7394 105.321C88.0028 106.086 88.6251 107.095 88.6251 108.346C88.5685 109.298 88.3799 110.12 88.0217 110.848C87.6634 111.557 87.3051 112.08 86.928 112.454C86.2869 113.088 85.3818 113.555 84.175 113.854C84.0241 113.891 83.911 113.91 83.8355 113.91C83.7035 113.91 83.647 113.873 83.647 113.817C83.647 113.705 83.8355 113.537 84.175 113.275C84.8726 112.79 85.5326 112.248 86.1549 111.632C86.7394 111.035 87.0411 110.642 87.0411 110.456C87.0411 109.952 86.4943 109.261 85.3818 108.346C85.1743 108.196 85.1178 107.991 85.1932 107.748C85.476 107.188 85.8532 106.423 86.3057 105.433Z" fill="white"/>
<path d="M81.328 107.3C81.2525 107.991 81.196 108.607 81.1394 109.167C81.0828 109.727 81.0263 110.194 80.9508 110.586C80.8188 111.408 80.5926 112.117 80.3097 112.752C80.0269 113.368 79.8006 113.779 79.6309 113.985C79.48 114.19 79.348 114.339 79.2538 114.414C79.1406 114.507 79.0652 114.526 79.0086 114.489C78.9521 114.451 78.9332 114.395 78.9709 114.321C78.9709 114.302 79.0463 114.022 79.1972 113.462C79.348 112.902 79.4612 112.36 79.5366 111.837C79.5932 111.315 79.6686 110.568 79.7252 109.597C79.7629 108.626 79.8383 107.879 79.9515 107.393C80.008 107.095 80.1023 106.777 80.2154 106.478C80.3286 106.161 80.4606 105.862 80.5926 105.564C80.7434 105.246 80.8754 104.966 81.0263 104.705C81.1771 104.443 81.328 104.219 81.4411 104.014C81.5354 103.883 81.6297 103.827 81.6862 103.864C81.7617 103.902 81.7805 103.958 81.7617 104.032C81.7428 104.107 81.7051 104.275 81.6674 104.555C81.6108 104.854 81.5731 105.153 81.5165 105.508C81.4788 105.862 81.4411 106.198 81.4034 106.534C81.3657 106.889 81.328 107.132 81.328 107.3Z" fill="white"/>
<path d="M71.9397 97.031C71.9397 96.8256 72.1283 96.3588 72.4865 95.6492C72.8448 94.9397 73.0899 94.5849 73.1842 94.5849C73.4105 94.4916 73.7122 94.6596 74.1271 95.0704C74.5419 95.4812 74.7682 95.7986 74.787 96.0413C74.787 96.3401 74.6173 96.7882 74.2779 97.367C73.9385 97.9459 73.6934 98.2446 73.5236 98.2446C73.4671 98.2073 73.2597 98.0766 72.9202 97.8525C72.5808 97.6285 72.3168 97.4604 72.1471 97.3297C72.0151 97.2363 71.9397 97.143 71.9397 97.031Z" fill="white"/>
<path d="M62.792 100.597C62.792 100.504 62.9806 100.093 63.3388 99.3275C63.716 98.5619 63.9422 98.1885 64.0554 98.1885C64.3382 98.1885 64.6211 98.3565 64.9605 98.674C65.2999 99.0474 65.4507 99.4022 65.4507 99.7383C65.4507 100.056 65.2999 100.504 64.9982 101.064C64.6965 101.624 64.4702 101.904 64.3194 101.904C64.2251 101.904 64.0365 101.755 63.7348 101.493C63.4331 101.232 63.188 101.045 63.0371 100.933C62.8674 100.803 62.792 100.709 62.792 100.597Z" fill="white"/>
<path d="M61.4707 104.2C61.4707 104.088 61.6781 103.64 62.093 102.875C62.5078 102.109 62.7529 101.736 62.8472 101.736C63.0169 101.736 63.2621 101.866 63.6015 102.165C63.922 102.445 64.1483 102.707 64.2803 102.949C64.4877 102.613 64.6952 102.259 64.8837 101.941C65.1666 101.474 65.3551 101.25 65.4117 101.25C65.638 101.25 65.9397 101.418 66.298 101.736C66.6562 102.109 66.8259 102.445 66.8259 102.744C66.8259 103.099 66.6562 103.547 66.298 104.088C65.9397 104.593 65.6945 104.854 65.5248 104.854C65.3928 104.854 65.2231 104.723 64.978 104.481C64.6763 104.144 64.3935 103.902 64.186 103.752C63.6581 104.835 63.2244 105.377 62.9226 105.377C62.8661 105.377 62.6021 105.19 62.1495 104.835C61.697 104.481 61.4707 104.275 61.4707 104.2Z" fill="white"/>
<path d="M47.8572 112.005C47.7818 112.024 47.7064 112.267 47.5933 112.715C47.4801 113.2 47.3858 113.499 47.3481 113.611C46.9521 114.806 46.6504 115.609 46.443 115.982C45.8019 117.028 44.9911 117.588 43.9917 117.625C43.2751 117.644 42.7471 117.327 42.3512 116.673C41.974 116.02 41.7666 115.067 41.71 113.816C41.6912 113.312 41.7478 112.435 41.8986 111.146C42.0495 109.802 42.1815 108.7 42.2946 107.879C42.4266 106.945 42.5397 106.142 42.6529 105.433C42.7283 104.704 42.8603 104.144 42.9923 103.771L43.8974 101.698C43.9351 101.642 43.9917 101.623 44.0482 101.642C44.086 101.68 44.1048 101.754 44.1048 101.885C44.1048 101.997 44.0671 102.258 44.0105 102.669C44.0105 102.669 43.8408 104.107 43.5391 106.945C43.4448 107.729 43.3694 108.364 43.3128 108.85C43.2751 109.335 43.2374 109.671 43.2374 109.858C43.3694 109.839 44.2368 108.906 45.9716 107.057C48.2344 104.667 53.8913 98.0758 54.8718 97.0115C55.7204 96.0966 56.2861 95.4244 57.0403 94.3227C57.21 94.0613 57.3043 93.9306 57.342 93.9493C57.3609 93.9679 57.3986 94.0426 57.3609 94.1733C57.2289 94.7895 56.7952 95.7605 56.7763 95.7978C56.3804 96.4887 55.9655 97.1048 54.985 98.3559C54.4193 99.0467 49.3658 104.984 48.3098 106.123L46.4807 108.121L44.8214 109.858C44.8779 109.858 44.9534 109.858 44.9911 109.877L45.3305 109.933L47.103 110.231C47.2538 110.269 47.4047 110.306 47.5367 110.343C49.0452 110.754 50.4971 111.109 52.0245 111.314C55.8901 111.818 60.1139 111.613 63.7532 110.717C70.4096 109.092 75.7837 105.675 77.971 103.509C78.2538 103.229 78.5555 102.781 78.8007 102.352C79.1967 101.717 79.3664 101.063 79.7247 100.41C79.9509 99.9617 80.1395 99.6256 80.2526 99.3828C80.2715 99.3455 80.3092 99.3082 80.4035 99.2335C80.4412 99.2335 80.4601 99.4202 80.4789 99.7936C80.4789 99.9057 80.4789 100.018 80.4978 100.148C80.4978 100.26 80.4978 100.372 80.4978 100.503C80.5355 101.082 79.5361 103.043 79.2344 103.472C77.4242 106.086 73.502 109.148 69.4102 111.202C63.6024 114.078 56.0598 115.179 50.7989 113.947C49.3846 113.611 48.7435 112.565 48.2344 112.099C48.1589 112.043 48.0835 112.024 48.027 112.005C47.9704 112.005 47.9138 111.986 47.8572 112.005ZM46.5939 112.453C46.5939 112.099 46.3864 111.818 45.9339 111.632C45.4813 111.445 44.8968 111.352 44.1802 111.352C43.7843 111.352 43.5391 111.37 43.426 111.445C43.03 111.613 42.8226 112.005 42.8226 112.621C42.8226 113.219 42.9923 113.686 43.294 114.022C43.558 114.302 43.9162 114.433 44.3499 114.433C45.0288 114.433 45.5756 114.208 45.9905 113.76C46.4053 113.312 46.5939 112.883 46.5939 112.453Z" fill="white"/>
<path d="M53.0269 97.46C53.0646 97.4786 53.0458 97.628 52.9326 97.9081C52.8949 98.0201 52.8383 98.1695 52.7252 98.3375C52.4046 98.879 51.8012 99.6259 50.8961 100.578C50.6699 100.784 50.4813 100.97 50.2739 101.176C50.0665 101.362 49.8779 101.568 49.6893 101.755C49.7648 101.549 49.8402 101.325 49.9533 101.101C50.0476 100.952 50.1985 100.728 50.4436 100.447C51.1036 99.7193 51.6315 99.1591 51.971 98.767C52.4612 98.1882 52.8006 97.7587 53.0269 97.46Z" fill="white"/>
<path d="M37.5824 112.435C37.5824 112.864 37.507 113.331 37.375 113.835C37.2242 114.358 37.0356 114.825 36.8093 115.236C36.4699 115.908 36.1116 116.412 35.7345 116.767C35.3574 117.103 34.9425 117.29 34.49 117.29C33.7734 117.29 33.4152 116.841 33.4152 115.982C33.4152 115.684 33.4529 115.366 33.566 115.03C33.6792 114.675 33.8489 114.339 34.0186 114.022C34.2071 113.704 34.358 113.462 34.49 113.238C34.358 113.2 34.2826 113.182 34.2637 113.163C34.226 113.163 34.2071 113.163 34.1883 113.163C34.1694 113.07 34.226 112.864 34.3768 112.528L35.4139 110.194C35.5082 109.951 35.6214 109.839 35.7534 109.839C35.8476 109.839 35.9985 109.895 36.2059 110.026C36.3945 110.138 36.5642 110.25 36.6962 110.344C37.0167 110.624 37.243 110.922 37.375 111.184C37.507 111.445 37.5824 111.875 37.5824 112.435ZM36.1682 114.731C36.1682 114.451 36.0551 114.227 35.8665 114.059C35.7722 113.947 35.6402 113.854 35.4517 113.742C35.2631 113.63 35.1311 113.555 34.9991 113.536C34.9237 113.536 34.7728 113.704 34.5465 114.059C34.3203 114.395 34.2071 114.675 34.2071 114.899C34.2071 115.348 34.49 115.553 34.9991 115.553C35.2442 115.553 35.4894 115.478 35.7534 115.31C36.0362 115.142 36.1682 114.937 36.1682 114.731Z" fill="white"/>
<path d="M43.2743 92.0642C43.3498 92.0455 43.3686 92.0829 43.3498 92.1389C43.3309 92.1949 43.2743 92.2882 43.1989 92.4003C43.1235 92.4936 43.0292 92.6243 42.8972 92.7737C42.7841 92.9044 42.6521 93.0538 42.5389 93.2032C41.3698 94.2115 40.1442 95.1451 38.8808 96.0227C38.7676 96.0227 38.8431 95.8546 39.0882 95.4998C39.3522 95.1824 40.031 94.5662 41.1058 93.67C42.1995 92.7737 42.9161 92.2322 43.2743 92.0642Z" fill="white"/>
<path d="M34.641 100.522C35.7913 99.663 37.0735 98.7108 38.4689 97.6465C39.3363 96.9743 40.2037 96.2461 41.0899 95.4805C41.5802 95.051 42.3722 94.3415 43.4658 93.3332C44.9743 91.9702 45.7286 91.2606 45.7286 91.2419C45.7286 91.3166 45.7097 91.3913 45.672 91.5034C45.5589 91.8021 45.3703 92.2129 45.0686 92.717C44.7669 93.2025 44.4841 93.5946 44.2389 93.8934C43.9938 94.2108 43.6355 94.6216 43.2018 95.0697C42.6927 95.5925 42.4099 95.8913 42.3156 95.966C42.0516 96.2087 41.5425 96.6568 40.7882 97.2917C40.5242 97.5158 40.1848 97.8145 39.77 98.1319C39.374 98.468 38.9026 98.8415 38.3746 99.2523C37.6392 99.8498 36.9604 100.354 36.3381 100.802C35.5084 101.418 34.6976 101.978 33.9433 102.52L32.3405 103.696C32.1897 103.808 32.0577 103.92 31.9068 104.032C31.7748 104.126 31.624 104.238 31.5108 104.331C31.228 104.536 31.0771 104.611 31.0394 104.536C31.1714 104.163 31.3034 103.752 31.6051 103.397C32.3028 102.52 33.8113 101.157 34.641 100.522Z" fill="white"/>
<path d="M23.9867 121.659C23.9867 121.529 24.1941 121.062 24.6278 120.278C25.0427 119.475 25.3066 119.083 25.4009 119.083C25.5706 119.008 25.8346 119.139 26.174 119.475C26.4946 119.792 26.7586 120.072 26.9283 120.315C27.1357 119.979 27.3809 119.605 27.626 119.176C27.89 118.765 28.0597 118.541 28.1351 118.541C28.3991 118.541 28.7008 118.746 29.0591 119.101C29.4173 119.475 29.6059 119.829 29.6248 120.165C29.6248 120.558 29.4362 121.024 29.0402 121.547C28.6819 122.07 28.3991 122.331 28.2294 122.331C28.1163 122.331 27.9088 122.182 27.6071 121.883C27.3054 121.585 27.0414 121.36 26.8152 121.192C26.2495 122.313 25.8158 122.873 25.4764 122.873C25.4009 122.873 25.2689 122.798 25.1181 122.668C24.9672 122.555 24.741 122.369 24.4392 122.126C24.1375 121.865 23.9867 121.715 23.9867 121.659Z" fill="white"/>
<path d="M23.8372 107.86C23.8372 108.196 23.8183 108.57 23.7995 108.999L23.7806 109.298C23.7806 110.157 24.2332 110.792 24.648 111.24C24.9874 111.632 25.4023 111.837 25.9114 111.893C26.6091 111.968 27.2314 111.725 27.7405 111.165C28.1365 110.754 28.457 110.456 28.721 110.306C28.8907 110.176 29.1547 110.064 29.3621 109.989C29.7958 109.821 30.2484 109.821 30.8895 109.839C31.7946 109.951 31.9455 109.111 31.9832 108.756C32.1529 106.385 30.2295 106.254 30.3992 105.937L31.0969 104.63C31.1724 104.425 31.3798 104.537 31.6061 104.667C32.3603 105.452 32.9072 106.012 33.1146 107.375C33.322 108.756 32.7186 109.989 31.5872 111.09C31.0969 111.501 30.5501 111.856 30.0033 112.024C29.8147 112.08 29.6261 112.099 29.4376 112.099C29.2679 112.099 29.2113 112.08 29.0416 112.043C28.8719 112.005 28.6833 111.968 28.5325 112.005C27.9668 112.117 27.3634 112.64 26.6845 113.555C25.968 114.47 25.2326 114.881 24.4783 114.806C23.8749 114.694 23.4035 114.414 23.0829 113.947C22.9887 114.246 22.8567 114.582 22.7058 114.974C22.5361 115.385 22.291 115.815 21.9893 116.281C21.6876 116.748 21.367 117.122 21.0653 117.402C20.575 117.812 20.0659 118.018 19.5191 117.999C19.2551 117.999 18.9911 117.924 18.7648 117.794C18.5574 117.644 18.35 117.476 18.1614 117.271C17.9917 117.14 17.8974 117.047 17.8408 117.01C17.7088 116.879 17.6334 116.729 17.6334 116.58C17.6334 116.487 17.69 116.375 17.7843 116.244C17.8974 116.113 18.0106 115.945 18.1425 115.796C18.1991 115.702 18.2934 115.59 18.3877 115.422C18.5008 115.254 18.5951 115.03 18.6705 114.769C18.746 114.507 18.8025 114.134 18.8591 113.705C18.8968 113.256 18.9345 112.883 18.9345 112.566L18.9722 111.613C18.9722 111.277 18.9722 110.941 18.9722 110.568C18.9911 109.634 19.1608 108.607 19.4625 107.505C19.6888 106.74 20.0282 105.75 20.4996 104.462C20.5373 104.387 20.575 104.331 20.5939 104.294C20.6316 104.275 20.6505 104.257 20.6693 104.257C20.7447 104.275 20.7825 104.462 20.7636 104.835C20.7636 105.022 20.7447 105.321 20.707 105.732C20.6693 106.142 20.6505 106.422 20.6505 106.535L20.311 110.53C20.2922 111.016 20.2168 111.557 20.1413 112.173C20.0282 112.771 19.8773 113.35 19.6888 113.91C19.4059 114.75 19.0665 115.46 18.6328 116.057C18.6517 116.095 18.746 116.113 18.8968 116.113L19.2739 116.132C19.8396 116.151 20.4242 115.945 20.9899 115.497C21.5556 115.049 21.9138 114.563 22.0835 114.078C22.2344 113.574 22.3098 113.088 22.3287 112.584C22.3853 111.408 22.4607 110.4 22.4984 109.559C22.5361 108.7 22.5927 108.01 22.687 107.468C22.7812 106.945 22.9132 106.348 23.1207 105.732C23.3092 105.097 23.6298 104.294 24.0446 103.304C24.12 103.192 24.1578 103.155 24.2143 103.174C24.2709 103.192 24.252 103.603 24.1578 104.387C24.0446 105.171 23.9503 106.329 23.8372 107.86Z" fill="white"/>
<path d="M16.5546 108.065C16.366 111.277 15.4232 114.04 13.7261 116.356C12.0479 118.615 10.0303 119.735 7.67322 119.754C6.44755 119.717 5.48587 119.306 4.76933 118.559C4.05278 117.831 3.67565 116.785 3.63794 115.478C3.63794 113.387 4.31677 111.109 5.731 108.663C5.995 108.159 6.14585 108.009 6.20242 108.196C6.25899 108.364 6.24013 108.551 6.18356 108.738C5.25959 110.549 4.78818 112.099 4.76933 113.406C4.80704 114.395 5.16531 115.142 5.84414 115.646C6.50412 116.169 7.39037 116.449 8.48405 116.486C9.82285 116.486 11.1239 116.132 12.3685 115.422C13.5941 114.619 14.4615 113.536 14.9518 112.173C15.1404 111.706 15.2347 111.09 15.2347 110.306C15.2347 110.007 15.2158 109.634 15.2158 109.167C15.2158 108.719 15.2158 108.383 15.2158 108.196C15.2535 107.636 15.3855 107.001 15.6118 106.329C15.8381 105.638 16.0266 105.153 16.1775 104.854C16.3283 104.536 16.4603 104.387 16.5546 104.387C16.63 104.387 16.6677 104.462 16.6489 104.611C16.6489 104.779 16.63 105.078 16.6112 105.526C16.5923 105.993 16.5735 106.833 16.5546 108.065Z" fill="white"/>
<path d="M12.4083 109.448C12.446 109.653 12.4272 109.877 12.3517 110.12C12.2763 110.363 12.1632 110.643 12.0123 110.941C11.8426 111.24 11.6352 111.52 11.3523 111.782C11.1826 111.95 11.0506 112.024 10.9375 112.024C10.8809 112.024 10.7489 111.931 10.5227 111.763C10.2964 111.576 10.089 111.427 9.91925 111.259C9.73069 111.109 9.57984 110.979 9.44784 110.867C9.31585 110.736 9.25928 110.643 9.25928 110.549C9.39127 110.269 9.48555 110.064 9.54212 109.914C9.74955 109.466 9.93811 109.093 10.089 108.831C10.2398 108.57 10.4661 108.159 10.7866 107.636C10.9752 107.805 11.2015 107.973 11.4843 108.197C11.7483 108.402 11.9746 108.607 12.1255 108.775C12.2763 108.962 12.3706 109.186 12.4083 109.448Z" fill="white"/>
<path d="M9.59854 3.81948C8.10888 3.81948 6.77007 4.41699 5.78954 5.38794C4.809 6.35889 4.2056 7.68461 4.2056 9.1597V79.3667C4.2056 80.8232 4.809 82.1489 5.78954 83.1198C6.77007 84.0908 8.10888 84.6883 9.59854 84.6883H22.4398C26.1734 84.6883 28.3984 84.7069 31.9246 83.0451C34.4325 81.8688 36.7518 80.1696 38.2226 78.3398C40.4477 75.5576 41.6922 70.0494 38.7695 67.3046C35.6204 64.373 29.9069 65.6801 28.9453 69.5265C28.1156 72.8128 29.4921 75.0348 30.7932 75.9497C23.5712 81.514 6.48723 77.7609 9.50426 65.1759C10.1831 62.3565 11.8425 59.5557 14.5389 57.6698C15.1235 57.2777 15.3686 56.6801 15.3875 56.008C15.4629 53.842 12.7476 53.2071 13.6338 50.6864C13.9544 49.7902 14.8218 49.0433 17.6125 49.118C17.6125 43.6097 17.0657 42.5454 21.8929 42.8628C23.194 42.9562 23.3449 41.7425 23.2129 40.9209C22.5906 37.3732 21.8175 30.5392 22.9112 25.3484C23.9294 20.4003 27.2293 17.3941 32.4337 17.114C34.3571 17.002 36.1861 17.4501 37.8455 18.253C40.2403 19.392 40.8437 21.3339 39.9951 23.5559C39.222 25.5538 36.7707 25.5164 35.2245 24.7882C34.5079 24.4521 34.0742 23.0144 34.6776 22.1368C35.3564 21.1472 36.0918 19.8215 34.3382 18.8505C32.6977 17.9729 30.0955 18.6825 28.6436 19.6721C23.9294 22.921 24.9854 30.2778 26.7202 35.0019C27.8139 38.0081 29.2658 40.5288 30.6046 43.0495C33.5462 48.6138 36.8461 53.1325 39.882 59.2196C41.8054 63.066 43.2196 66.6324 43.2196 69.6946C43.2384 75.3336 40.4288 80.2817 36.1296 83.3626C31.8114 86.4621 28.2476 86.6862 23.2129 86.6862H6.75122C5.60097 86.6862 4.54501 86.2194 3.79075 85.4725C3.0365 84.7069 2.56509 83.68 2.56509 82.541V6.69499C2.56509 5.55599 3.0365 4.52902 3.79075 3.78214C4.54501 3.01658 5.60097 2.54978 6.75122 2.54978H88.2488C89.399 2.54978 90.4361 3.01658 91.1904 3.78214C91.9635 4.52902 92.4161 5.55599 92.4161 6.69499V82.541C92.4161 83.68 91.9635 84.7069 91.1904 85.4725C90.4361 86.2194 89.399 86.6862 88.2488 86.6862H71.7682C66.7524 86.6862 63.1886 86.4621 58.8516 83.3626C54.5712 80.2817 51.7616 75.3336 51.7616 69.6946C51.7804 66.6324 53.1946 63.066 55.0991 59.2196C58.135 53.1325 61.4349 48.6138 64.3954 43.0495C65.7153 40.5288 67.1861 38.0081 68.2798 35.0019C69.9957 30.2778 71.0517 22.921 66.3564 19.6721C64.9045 18.6825 62.2835 17.9729 60.6618 18.8505C58.9081 19.8215 59.6436 21.1472 60.3224 22.1368C60.9258 23.0144 60.4921 24.4521 59.7567 24.7882C58.2293 25.5164 55.778 25.5538 55.0049 23.5559C54.1375 21.3339 54.7597 19.392 57.1545 18.253C58.8139 17.4501 60.6241 17.002 62.5663 17.114C67.7518 17.3941 71.0517 20.4003 72.0888 25.3484C73.1636 30.5392 72.4094 37.3732 71.7871 40.9209C71.6363 41.7425 71.7871 42.9562 73.1071 42.8628C77.9343 42.5454 77.3875 43.6097 77.3875 49.118C80.1594 49.0433 81.0456 49.7902 81.3662 50.6864C82.2524 53.2071 79.5371 53.842 79.6125 56.008C79.6314 56.6801 79.8765 57.2777 80.4611 57.6698C83.1575 59.5557 84.798 62.3565 85.4769 65.1759C88.5128 77.7609 71.41 81.514 64.2068 75.9497C65.5079 75.0348 66.8844 72.8128 66.0547 69.5265C65.0931 65.6801 59.3796 64.373 56.2117 67.3046C53.2889 70.0494 54.5335 75.5576 56.7774 78.3398C58.2482 80.1696 60.5675 81.8688 63.0754 83.0451C66.5827 84.7069 68.8266 84.6883 72.5602 84.6883H85.4015C86.8911 84.6883 88.2299 84.0908 89.2105 83.1198C90.1721 82.1489 90.7755 80.8232 90.7755 79.3667V9.1597C90.7755 7.68461 90.1721 6.35889 89.2105 5.38794C88.2299 4.41699 86.8911 3.81948 85.4015 3.81948H9.59854ZM85.4015 5.38794C86.4574 5.38794 87.4002 5.79873 88.0979 6.48959C88.7768 7.18046 89.2105 8.11406 89.2105 9.1597V79.3667C89.2105 80.3937 88.7768 81.3273 88.0979 82.0182C87.4002 82.709 86.4574 83.1198 85.4015 83.1198H72.5602C69.2792 83.1198 67.6764 83.1945 64.5274 81.8875C61.944 80.8232 59.5493 79.1053 57.7013 76.6779C56.5134 75.1095 56.174 73.0369 56.2117 71.7299C56.4002 66.0349 64.5651 66.0162 64.5651 71.3564C64.5651 74.1199 62.8869 74.6987 61.5858 75.6136C62.7737 77.3128 65.3005 78.9746 67.9215 79.6281C71.4477 80.5057 75.0493 80.4124 78.1983 79.4788C82.3844 78.2277 85.7409 75.4829 87.0231 71.5618C87.8151 69.1904 87.8339 66.3896 86.8345 63.2341C86.0426 60.7133 84.5341 58.398 82.2147 56.6988C81.7433 56.3441 81.5736 56.0266 81.9884 55.4478C84.4398 51.8814 83.3084 48.0163 79.1411 47.4001C80.3479 40.118 75.6904 40.9396 73.4842 40.8462C74.1064 36.4956 74.9927 30.3525 73.9744 25.255C72.7865 19.392 68.7701 15.8256 62.7172 15.4148C59.6058 15.2281 56.7774 16.1057 55.0991 17.3194C52.2141 19.448 52.1387 22.3982 53.2889 24.5828C54.4015 26.7115 57.7956 28.0932 60.5675 26.4314C61.5481 25.8525 62.1137 25.1803 62.1703 23.9853C62.208 23.0704 61.7743 22.0061 61.4161 21.3712C60.4544 19.6534 63.3206 19.4667 65.1308 20.6617C69.2792 23.4252 68.2044 30.0164 66.4696 34.0122C61.812 44.6367 55.6271 51.9935 51.4033 62.6739C49.4799 67.5286 49.5931 71.9352 50.9696 75.8377C52.3838 79.8709 55.1746 83.4186 59.9075 86.1074C63.5468 88.18 66.5639 88.236 70.5237 88.236H88.2488C89.8327 88.236 91.2658 87.6011 92.3029 86.5742C93.3589 85.5285 94 84.1094 94 82.541V6.69499C94 5.12653 93.3589 3.70745 92.3029 2.68049C91.2658 1.63485 89.8327 1 88.2488 1H6.75122C5.16727 1 3.73418 1.63485 2.67822 2.68049C1.64112 3.70745 1 5.12653 1 6.69499V82.541C1 84.1094 1.64112 85.5285 2.67822 86.5742C3.73418 87.6011 5.16727 88.236 6.75122 88.236H24.4763C28.4361 88.236 31.4532 88.18 35.0736 86.1074C39.8066 83.4186 42.6162 79.8709 44.0304 75.8377C45.4069 71.9352 45.5012 67.5286 43.5967 62.6739C39.3729 51.9935 33.1691 44.6367 28.5304 34.0122C26.7768 30.0164 25.7208 23.4252 29.8692 20.6617C31.6606 19.4667 34.5268 19.6534 33.5839 21.3712C33.2257 22.0061 32.7731 23.0704 32.8297 23.9853C32.8863 25.1803 33.4519 25.8525 34.4136 26.4314C37.2044 28.0932 40.5797 26.7115 41.7111 24.5828C42.8613 22.3982 42.7859 19.448 39.882 17.3194C38.2038 16.1057 35.3942 15.2281 32.2828 15.4148C26.2299 15.8256 22.2135 19.392 21.0255 25.255C19.9884 30.3525 20.8936 36.4956 21.5158 40.8462C19.2908 40.9396 14.6521 40.118 15.8589 47.4001C11.6727 48.0163 10.5602 51.8814 13.0116 55.4478C13.4075 56.0266 13.2567 56.3441 12.7853 56.6988C10.4659 58.398 8.95742 60.7133 8.16545 63.2341C7.16606 66.3896 7.18491 69.1904 7.95803 71.5618C9.25912 75.4829 12.6156 78.2277 16.8017 79.4788C19.9319 80.4124 23.5523 80.5057 27.0785 79.6281C29.6995 78.9746 32.2263 77.3128 33.4142 75.6136C32.0943 74.6987 30.4161 74.1199 30.4161 71.3564C30.4161 66.0162 38.5809 66.0349 38.7695 71.7299C38.826 73.0369 38.4866 75.1095 37.2987 76.6779C35.4507 79.1053 33.0371 80.8232 30.4726 81.8875C27.3236 83.1945 25.7208 83.1198 22.4398 83.1198H9.59854C8.54258 83.1198 7.59976 82.709 6.90207 82.0182C6.20438 81.3273 5.78954 80.3937 5.78954 79.3667V9.1597C5.78954 8.11406 6.20438 7.18046 6.90207 6.48959C7.59976 5.79873 8.54258 5.38794 9.59854 5.38794H85.4015Z" fill="white" stroke="black" stroke-width="0.0029999"/>
</svg>
